<svg xmlns="http://www.w3.org/2000/svg" xmlns:xlink="http://www.w3.org/1999/xlink" version="1.1" id="Capa_1" x="0px" y="0px" viewBox="0 0 512 512" style="enable-background:new 0 0 512 512;" xml:space="preserve" width="512" height="512" class=""><g><path style="fill:#E3E4E3" d="M478.4,65.099C475.401,61.8,471.501,60,467,60H45c-4.501,0-8.401,1.8-11.4,5.099  c-2.699,3.3-4.2,7.8-3.6,12.001l57.4,396.199C90.7,495.5,109.9,512,132.1,512h247.8c22.2,0,41.4-16.5,44.7-38.701L482,77.1  C482.601,72.9,481.099,68.399,478.4,65.099z" data-original="#7BCC29" class="" data-old_color="#7BCC29"></path><path style="fill:#D8DBD8" d="M482,77.1l-57.4,396.199C421.3,495.5,402.1,512,379.9,512H256V60h211c4.501,0,8.401,1.8,11.4,5.099  C481.099,68.399,482.601,72.9,482,77.1z" data-original="#6EB825" class="" data-old_color="#D6DAD6"></path><path style="fill:#3960AC" d="M324.101,361h-46.8l4.199,4.499c6,5.7,6,15.3,0,21c-5.7,6-15.298,6-20.999,0L256,382l-25.499-25.501  c-6-5.7-6-15.3,0-21l30-30c5.7-5.999,15.298-5.999,20.999,0c6,5.7,6,15.3,0,21L277.301,331h46.8c11.4,0,18.6-12.601,12.9-22.5  c-4.2-7.2-1.5-16.201,5.4-20.4c7.2-4.2,16.5-1.8,20.7,5.4C380.2,323.5,358.9,361,324.101,361z" data-original="#E1E4FB" class="" data-old_color="#5400FF"></path><path style="fill:#33579A" d="M324.101,361h-46.8l4.199,4.499c6,5.7,6,15.3,0,21c-5.7,6-15.298,6-20.999,0L256,382v-72l4.501-4.501  c5.7-5.999,15.298-5.999,20.999,0c6,5.7,6,15.3,0,21L277.301,331h46.8c11.4,0,18.6-12.601,12.9-22.5c-4.2-7.2-1.5-16.201,5.4-20.4  c7.2-4.2,16.5-1.8,20.7,5.4C380.2,323.5,358.9,361,324.101,361z" data-original="#C5C9F7" class="" data-old_color="#33589B"></path><path style="fill:#3960AC" d="M349.6,217l-10.8,41.1c-2.1,7.5-9.901,12.9-18.3,10.499l-41.1-10.8  c-8.101-2.1-12.601-10.501-10.501-18.3c2.1-8.101,10.201-12.902,18.3-10.801l5.4,1.501l-23.699-40.5c-2.999-5.099-7.8-7.8-12.9-7.8  s-10.201,2.701-13.2,7.8c-4.2,7.2-13.5,9.6-20.7,5.4s-9.6-13.2-5.4-20.4c8.699-15.3,24-22.8,39.3-22.8s30,7.5,38.699,22.8l24.3,41.1  l1.8-6.299c2.1-8.101,10.501-12.902,18.301-10.801C347.199,200.799,352,209.2,349.6,217z" data-original="#E1E4FB" class="" data-old_color="#5400FF"></path><path style="fill:#33579A" d="M349.6,217l-10.8,41.1c-2.1,7.5-9.901,12.9-18.3,10.499l-41.1-10.8  c-8.101-2.1-12.601-10.501-10.501-18.3c2.1-8.101,10.201-12.902,18.3-10.801l5.4,1.501l-23.699-40.5c-2.999-5.099-7.8-7.8-12.9-7.8  v-30c15.3,0,30,7.5,38.699,22.8l24.3,41.1l1.8-6.299c2.1-8.101,10.501-12.902,18.301-10.801C347.199,200.799,352,209.2,349.6,217z" data-original="#C5C9F7" class="" data-old_color="#33589B"></path><path style="fill:#3960AC" d="M228.754,265.888l-10.986-40.972l-0.002-0.002c-2.075-7.738-10.348-12.714-18.367-10.604  l-40.972,10.972c-7.998,2.139-12.744,10.371-10.605,18.369s10.356,12.788,18.369,10.605l6.064-1.624l-23.628,41.043  C131.457,323.708,153.159,361,187.694,361c8.291,0,15-6.709,15-15s-6.709-15-15-15c-11.535,0-18.723-12.461-13.052-22.397  l23.542-40.897l1.595,5.945c2.163,8.053,10.423,12.748,18.369,10.605C226.146,282.118,230.907,273.886,228.754,265.888z" data-original="#E1E4FB" class="" data-old_color="#5400FF"></path><path style="fill:#8E8D8D" d="M467,0H45C20.099,0,0,20.099,0,45v30c0,8.399,6.599,15,15,15h482c8.401,0,15-6.601,15-15V45  C512,20.099,491.901,0,467,0z" data-original="#FEDB41" class="" data-old_color="#FEDB41"></path><path style="fill:#898585" d="M512,45v30c0,8.399-6.599,15-15,15H256V0h211C491.901,0,512,20.099,512,45z" data-original="#FFCC33" class="active-path" data-old_color="#898686"></path></g> </svg>