<?xml version="1.0" encoding="iso-8859-1"?>
<!-- Generator: Adobe Illustrator 19.0.0, SVG Export Plug-In . SVG Version: 6.00 Build 0)  -->
<svg version="1.1" id="Layer_1" xmlns="http://www.w3.org/2000/svg" xmlns:xlink="http://www.w3.org/1999/xlink" x="0px" y="0px"
	 viewBox="0 0 431.542 431.542" style="enable-background:new 0 0 431.542 431.542;" xml:space="preserve">
<g>
	<g id="XMLID_16_">
		<g>
			<rect x="200.586" y="261.77" style="fill:#B3B3B3;" width="30.37" height="112.58"/>
			<rect x="200.586" y="146.99" style="fill:#B3B3B3;" width="30.37" height="68.28"/>
			<path style="fill:#008DB3;" d="M323.016,246.76c0,4.14-1.68,7.9-4.4,10.61c-2.71,2.72-6.46,4.4-10.61,4.4h-77.05h-30.37h-77.05
				c-8.29,0-15.01-6.72-15.01-15.01c0-8.7,3.53-16.57,9.22-22.27c5.7-5.69,13.57-9.22,22.27-9.22h60.57h30.37h60.57
				C308.916,215.27,323.016,229.37,323.016,246.76z"/>
			<path style="fill:#008DB3;" d="M311.186,119.99c1.9,14.3-9.23,27-23.66,27h-56.57h-30.37h-56.57c-14.43,0-25.55-12.7-23.65-27
				l13.17-99.27C135.116,8.86,145.226,0,157.196,0h117.16c11.96,0,22.08,8.86,23.65,20.72L311.186,119.99z"/>
		</g>
	</g>
	<g>
		<path style="fill:#008DB3;" d="M142.501,397.002c-9.522,0-17.269,7.747-17.269,17.27s7.747,17.27,17.269,17.27
			s17.27-7.747,17.27-17.27S152.023,397.002,142.501,397.002z"/>
		<path style="fill:#008DB3;" d="M215.773,397.002c-9.522,0-17.27,7.747-17.27,17.27s7.747,17.27,17.27,17.27
			c9.522,0,17.269-7.747,17.269-17.27S225.295,397.002,215.773,397.002z"/>
		<path style="fill:#008DB3;" d="M289.044,397.002c-9.522,0-17.27,7.747-17.27,17.27s7.747,17.27,17.27,17.27
			s17.27-7.747,17.27-17.27S298.567,397.002,289.044,397.002z"/>
	</g>
	<path style="fill:#808080;" d="M273.576,367.85h-115.6c-12.12,0-21.97,9.86-21.97,21.97v2.11c2.06-0.61,4.24-0.93,6.5-0.93
		c2.25,0,4.44,0.32,6.5,0.93v-2.11c0-4.95,4.02-8.97,8.97-8.97h51.3v11.08c2.06-0.61,4.24-0.93,6.5-0.93s4.44,0.32,6.5,0.93v-11.08
		h51.3c4.94,0,8.97,4.02,8.97,8.97v2.11c2.06-0.61,4.25-0.93,6.5-0.93s4.44,0.32,6.5,0.93v-2.11
		C295.546,377.71,285.686,367.85,273.576,367.85z"/>
	<rect x="230.961" y="287.202" style="fill:#808080;" width="21.901" height="15"/>
	<rect x="245.362" y="277.202" style="fill:#666666;" width="15" height="36"/>
</g>
<g>
</g>
<g>
</g>
<g>
</g>
<g>
</g>
<g>
</g>
<g>
</g>
<g>
</g>
<g>
</g>
<g>
</g>
<g>
</g>
<g>
</g>
<g>
</g>
<g>
</g>
<g>
</g>
<g>
</g>
</svg>
