<?xml version="1.0" encoding="iso-8859-1"?>
<!-- Generator: Adobe Illustrator 16.0.0, SVG Export Plug-In . SVG Version: 6.00 Build 0)  -->
<!DOCTYPE svg PUBLIC "-//W3C//DTD SVG 1.1//EN" "http://www.w3.org/Graphics/SVG/1.1/DTD/svg11.dtd">
<svg version="1.1" id="Capa_1" xmlns="http://www.w3.org/2000/svg" xmlns:xlink="http://www.w3.org/1999/xlink" x="0px" y="0px"
	 width="362.346px" height="362.347px" viewBox="0 0 362.346 362.347" style="enable-background:new 0 0 362.346 362.347;"
	 xml:space="preserve">
<g>
	<path d="M195.025,195.977c-0.408-18.717-0.306-37.458-0.21-56.199c26.175,0.646,52.362,1.192,78.453-1.525
		c7.716-0.805,16.188-6.407,15.372-15.373c-5.026-55.199-69.392-72.213-94.335-115.367c-4.996-8.632-17.117-10.04-24.143-3.11
		c-34.2,33.714-60.913,74.204-90.654,111.737c-7.458,4.47-7.362,14.667-2.282,21.455c4.096,6.296,11.77,9.821,18.387,5.839
		c22.719-3.711,45.562-4.443,68.455-4.248c-0.093,19.362-0.198,38.71,0.24,58.033c-0.868,0.018-1.748,0.055-2.601,0.066
		c-0.039,0-0.062-0.012-0.099-0.012c-33.156,0.054-78.939-0.331-92.192,37.865c-9.604,27.683-13.688,84.212,9.992,106.586
		c22.437,21.196,58.015,20.92,86.917,20.518c37.875-0.521,75.609-6.521,113.025-11.913c5.038-0.732,9.535-6.071,10.736-10.736
		c8.124-31.622,21.533-96.671-6.503-122.546C260.28,195.532,226.791,194.716,195.025,195.977z M122.704,109.943
		c18.207-24.203,36.224-48.627,56.7-70.854c8.41,9.68,18.246,18.101,28.117,26.451c13.223,11.175,36.018,25.875,45.787,43.469
		C209.755,111.315,166.169,107.349,122.704,109.943z M262.748,321.915c-45.24,6.689-93.107,14.658-138.396,7.416
		c-31.39-5.02-30.462-29.478-29.712-57.016c0.394-14.651,0.592-29.729,14.34-38.515c13.577-8.683,37.022-5.788,52.413-5.788
		c0.069,0,0.129,0.018,0.192,0.018c1.315-0.018,2.654-0.054,3.99-0.096c0.706,11.114,1.714,22.211,3.153,33.297
		c2.51,19.371,33.288,19.617,30.748,0c-1.501-11.613-2.534-23.233-3.249-34.87c20.903-0.974,42.226-0.637,60.042,8.028
		C277.49,244.706,268.674,296.028,262.748,321.915z"/>
</g>
<g>
</g>
<g>
</g>
<g>
</g>
<g>
</g>
<g>
</g>
<g>
</g>
<g>
</g>
<g>
</g>
<g>
</g>
<g>
</g>
<g>
</g>
<g>
</g>
<g>
</g>
<g>
</g>
<g>
</g>
</svg>
