<svg xmlns="http://www.w3.org/2000/svg" height="855pt" version="1.1" viewBox="0 -142 855 855" width="855pt">
<g id="surface1">
<path d="M 88.5 453.800781 L 147.5 453.800781 L 147.5 571.699219 L 88.5 571.699219 Z M 88.5 453.800781 " style=" stroke:none;fill-rule:nonzero;fill:rgb(50.196078%,40.392157%,28.627451%);fill-opacity:1;" />
<path d="M 707.601562 453.800781 L 766.601562 453.800781 L 766.601562 571.699219 L 707.601562 571.699219 Z M 707.601562 453.800781 " style=" stroke:none;fill-rule:nonzero;fill:rgb(50.196078%,40.392157%,28.627451%);fill-opacity:1;" />
<path d="M 545.398438 11.601562 L 427.5 11.601562 L 427.5 365.398438 L 545.398438 365.398438 Z M 471.699219 321.101562 Z M 471.699219 55.800781 Z M 471.699219 55.800781 " style=" stroke:none;fill-rule:nonzero;fill:rgb(74.117647%,85.882353%,100%);fill-opacity:1;" />
<path d="M 663.398438 365.300781 L 663.398438 11.601562 L 545.398438 11.601562 L 545.398438 365.398438 L 663.398438 365.398438 Z M 619.101562 55.800781 Z M 619.101562 321.101562 Z M 619.101562 321.101562 " style=" stroke:none;fill-rule:nonzero;fill:rgb(86.27451%,95.686275%,79.215686%);fill-opacity:1;" />
<path d="M 781.300781 365.300781 L 781.300781 70.5 L 663.398438 70.5 L 663.398438 365.300781 Z M 737.101562 114.800781 Z M 737.101562 321.101562 Z M 737.101562 321.101562 " style=" stroke:none;fill-rule:nonzero;fill:rgb(100%,89.411765%,46.666667%);fill-opacity:1;" />
<path d="M 310.601562 0 L 133.699219 306.398438 L 235.800781 365.398438 L 412.800781 59 Z M 194.199219 290.199219 L 219.699219 304.898438 Z M 352.300781 75.101562 L 326.800781 60.398438 Z M 352.300781 75.101562 " style=" stroke:none;fill-rule:nonzero;fill:rgb(84.705882%,84.313725%,85.490196%);fill-opacity:1;" />
<path d="M 825.5 365.300781 L 427.5 365.300781 L 427.5 453.699219 L 825.5 453.699219 C 841.800781 453.699219 855 440.5 855 424.199219 L 855 394.699219 C 855 378.5 841.800781 365.300781 825.5 365.300781 Z M 825.5 365.300781 " style=" stroke:none;fill-rule:nonzero;fill:rgb(65.490196%,53.72549%,40%);fill-opacity:1;" />
<path d="M 235.898438 365.300781 L 29.5 365.300781 C 13.199219 365.300781 0 378.5 0 394.800781 L 0 424.300781 C 0 440.601562 13.199219 453.800781 29.5 453.800781 L 427.5 453.800781 L 427.5 365.398438 L 235.898438 365.398438 Z M 235.898438 365.300781 " style=" stroke:none;fill-rule:nonzero;fill:rgb(58.431373%,47.058824%,33.72549%);fill-opacity:1;" />
<path d="M 501.199219 70.5 L 471.699219 70.5 C 463.601562 70.5 457 63.898438 457 55.800781 C 457 47.699219 463.601562 41.101562 471.699219 41.101562 L 501.199219 41.101562 C 509.300781 41.101562 515.898438 47.699219 515.898438 55.800781 C 515.898438 63.898438 509.300781 70.5 501.199219 70.5 Z M 501.199219 70.5 " style=" stroke:none;fill-rule:nonzero;fill:rgb(41.568627%,33.72549%,23.921569%);fill-opacity:1;" />
<path d="M 619.101562 70.5 L 589.601562 70.5 C 581.5 70.5 574.898438 63.898438 574.898438 55.800781 C 574.898438 47.699219 581.5 41.101562 589.601562 41.101562 L 619.101562 41.101562 C 627.199219 41.101562 633.800781 47.699219 633.800781 55.800781 C 633.800781 63.898438 627.300781 70.5 619.101562 70.5 Z M 619.101562 70.5 " style=" stroke:none;fill-rule:nonzero;fill:rgb(41.568627%,33.72549%,23.921569%);fill-opacity:1;" />
<path d="M 737.101562 129.5 L 707.601562 129.5 C 699.5 129.5 692.898438 122.898438 692.898438 114.800781 C 692.898438 106.699219 699.398438 100 707.601562 100 L 737.101562 100 C 745.199219 100 751.800781 106.601562 751.800781 114.699219 C 751.800781 122.800781 745.199219 129.5 737.101562 129.5 Z M 737.101562 129.5 " style=" stroke:none;fill-rule:nonzero;fill:rgb(41.568627%,33.72549%,23.921569%);fill-opacity:1;" />
<path d="M 501.199219 335.898438 L 471.699219 335.898438 C 463.601562 335.898438 457 329.300781 457 321.199219 C 457 313.101562 463.601562 306.5 471.699219 306.5 L 501.199219 306.5 C 509.300781 306.5 515.898438 313.101562 515.898438 321.199219 C 515.898438 329.300781 509.300781 335.898438 501.199219 335.898438 Z M 501.199219 335.898438 " style=" stroke:none;fill-rule:nonzero;fill:rgb(41.568627%,33.72549%,23.921569%);fill-opacity:1;" />
<path d="M 352.300781 89.898438 C 349.699219 89.898438 347.199219 89.199219 344.898438 87.898438 L 319.398438 73.199219 C 312.300781 69.101562 309.898438 60.101562 314 53.101562 C 318.101562 46 327.101562 43.601562 334.101562 47.699219 L 359.601562 62.398438 C 366.699219 66.5 369.101562 75.5 365 82.5 C 362.5 87.101562 357.601562 89.898438 352.300781 89.898438 Z M 352.300781 89.898438 " style=" stroke:none;fill-rule:nonzero;fill:rgb(41.568627%,33.72549%,23.921569%);fill-opacity:1;" />
<path d="M 219.699219 319.699219 C 217.101562 319.699219 214.601562 319 212.300781 317.699219 L 186.800781 303 C 179.800781 298.898438 177.398438 289.898438 181.5 282.800781 C 185.601562 275.800781 194.5 273.5 201.5 277.398438 L 227 292.101562 C 234.101562 296.199219 236.5 305.199219 232.398438 312.199219 C 229.800781 316.800781 224.898438 319.699219 219.699219 319.699219 Z M 219.699219 319.699219 " style=" stroke:none;fill-rule:nonzero;fill:rgb(41.568627%,33.72549%,23.921569%);fill-opacity:1;" />
<path d="M 619.101562 335.898438 L 589.601562 335.898438 C 581.5 335.898438 574.898438 329.300781 574.898438 321.199219 C 574.898438 313.101562 581.5 306.5 589.601562 306.5 L 619.101562 306.5 C 627.199219 306.5 633.800781 313.101562 633.800781 321.199219 C 633.800781 329.300781 627.300781 335.898438 619.101562 335.898438 Z M 619.101562 335.898438 " style=" stroke:none;fill-rule:nonzero;fill:rgb(41.568627%,33.72549%,23.921569%);fill-opacity:1;" />
<path d="M 737.101562 335.898438 L 707.601562 335.898438 C 699.5 335.898438 692.898438 329.300781 692.898438 321.199219 C 692.898438 313.101562 699.5 306.5 707.601562 306.5 L 737.101562 306.5 C 745.199219 306.5 751.800781 313.101562 751.800781 321.199219 C 751.800781 329.300781 745.199219 335.898438 737.101562 335.898438 Z M 737.101562 335.898438 " style=" stroke:none;fill-rule:nonzero;fill:rgb(41.568627%,33.72549%,23.921569%);fill-opacity:1;" />
</g>
</svg>