<?xml version="1.0"?>
<svg xmlns="http://www.w3.org/2000/svg" xmlns:xlink="http://www.w3.org/1999/xlink" version="1.1" id="Capa_1" x="0px" y="0px" viewBox="0 0 58 58" style="enable-background:new 0 0 58 58;" xml:space="preserve" width="512px" height="512px" class=""><g><rect x="5" y="35.035" style="fill:#A9D1F3" width="48" height="15.965" data-original="#28384C" class="active-path" data-old_color="#A8D0F3"/><rect style="fill:#FBF6F2;" width="58" height="4" data-original="#FBF6F2" class=""/><rect x="1" y="4" style="fill:#BCB7B3;" width="56" height="3" data-original="#BCB7B3" class=""/><rect x="53" y="7" style="fill:#EDE7E9;" width="3" height="44" data-original="#EDE7E9" class=""/><polygon style="fill:#DBD6D2;" points="5,7 5,35 36.277,35 43.723,35 53,35 53,7 " data-original="#DBD6D2" class=""/><rect y="51" style="fill:#FBF6F2;" width="58" height="4" data-original="#FBF6F2" class=""/><rect x="1" y="55" style="fill:#BCB7B3;" width="56" height="3" data-original="#BCB7B3" class=""/><rect x="2" y="7" style="fill:#EDE7E9;" width="3" height="44" data-original="#EDE7E9" class=""/><rect x="8" y="10" style="fill:#7EAADA" width="42" height="22" data-original="#7FABDA" class="" data-old_color="#7FABDA"/><path style="fill:#EBBA16;" d="M44,37c0-0.552-0.224-1.052-0.586-1.414c0-0.512-0.195-1.024-0.586-1.414  c-0.391-0.391-0.902-0.586-1.414-0.586C41.052,33.224,40.552,33,40,33c-0.552,0-1.052,0.224-1.414,0.586  c-0.512,0-1.024,0.195-1.414,0.586c-0.39,0.391-0.586,0.902-0.586,1.414C36.224,35.948,36,36.448,36,37s0.224,1.052,0.586,1.414  c0,0.512,0.195,1.024,0.586,1.414c0.391,0.39,0.902,0.586,1.414,0.586C38.948,40.776,39.448,41,40,41s1.052-0.224,1.414-0.586  c0.512,0,1.024-0.195,1.414-0.586c0.39-0.391,0.586-0.902,0.586-1.414C43.776,38.052,44,37.552,44,37z" data-original="#EBBA16" class=""/><circle style="fill:#DD352E;" cx="40" cy="37" r="1" data-original="#DD352E" class=""/><polygon style="fill:#F7B563;" points="43,51 37,51 35,46 45,46 " data-original="#F7B563"/><polygon style="fill:#BC8850;" points="46,46 34,46 33,43 47,43 " data-original="#BC8850" class=""/><polygon style="fill:#A4C9EA;" points="24,10 8,29 8,32 11,32 29,10 " data-original="#A4C9EA"/><polygon style="fill:#D2E8F9" points="33,10 15,32 17,32 20,32 38,10 " data-original="#D2E8F9" class=""/></g> </svg>
